SplineFontDB: 3.2
FontName: Wynyorde-Egoydzayomx
FullName: Wynyorde Egoydzayomx Regular
FamilyName: Wynyorde Egoydzayomx
Weight: Regular
Copyright: Copyright  2022
Version: 1.0
ItalicAngle: 0
UnderlinePosition: 150
UnderlineWidth: 100
Ascent: 800
Descent: 200
InvalidEm: 0
sfntRevision: 0x00010000
LayerCount: 2
Layer: 0 0 "Back" 1
Layer: 1 0 "Fore" 0
XUID: [1021 386 1071978211 15043590]
StyleMap: 0x0040
FSType: 4
OS2Version: 2
OS2_WeightWidthSlopeOnly: 0
OS2_UseTypoMetrics: 0
CreationTime: 1654252293
ModificationTime: 1708911613
PfmFamily: 81
TTFWeight: 400
TTFWidth: 5
LineGap: 0
VLineGap: 0
Panose: 0 0 4 0 0 0 0 0 0 0
OS2TypoAscent: 1600
OS2TypoAOffset: 0
OS2TypoDescent: -400
OS2TypoDOffset: 0
OS2TypoLinegap: 0
OS2WinAscent: 2800
OS2WinAOffset: 0
OS2WinDescent: 1200
OS2WinDOffset: 0
HheadAscent: 2800
HheadAOffset: 0
HheadDescent: -1200
HheadDOffset: 0
OS2SubXSize: 1000
OS2SubYSize: 1000
OS2SubXOff: 0
OS2SubYOff: -200
OS2SupXSize: 1000
OS2SupYSize: 1000
OS2SupXOff: 0
OS2SupYOff: 1000
OS2StrikeYSize: 100
OS2StrikeYPos: 400
OS2CapHeight: 2400
OS2XHeight: 800
OS2Vendor: 'FSTR'
OS2CodePages: 200101ff.cdff0000
OS2UnicodeRanges: 00000001.00000000.00000000.00000000
DEI: 91125
LangName: 1033 "Copyright +rkDWBMgc 2022" "" "Regular" "Wynyorde Egoydzayomx" "" "1.0" "" "FontStruct is a trademark of FontStruct.com" "https://fontstruct.com" "+rkDWBMgc" "+IBwA-Wynyorde Egoydzayomx+IB0A was built with FontStruct+AAoA" "https://fontstruct.com/fontstructions/show/2127875/wynyorde-egoydzayomx" "https://fontstruct.com/fontstructors/show/1983648/gimhyeonje" "FontStruct Non-Commercial License" "" "" "" "" "" "Five big quacking zephyrs jolt my wax bed"
Encoding: UnicodeBmp
UnicodeInterp: none
NameList: AGL For New Fonts
DisplaySize: -48
AntiAlias: 1
FitToEm: 0
WinInfo: 32 16 10
BeginChars: 65537 61

StartChar: .notdef
Encoding: 65536 -1 0
Width: 1630
GlyphClass: 1
Flags: W
LayerCount: 2
Fore
SplineSet
1162 50 m 1
 69 50 l 1
 615 781 l 1
 1162 50 l 1
50 69 m 1
 50 1531 l 1
 596 800 l 1
 50 69 l 1
1181 69 m 1
 635 800 l 1
 1181 1531 l 1
 1181 69 l 1
615 819 m 1
 69 1550 l 1
 1162 1550 l 1
 615 819 l 1
0 0 m 1
 1231 0 l 1
 1231 1600 l 1
 0 1600 l 1
 0 0 l 1
EndSplineSet
EndChar

StartChar: space
Encoding: 32 32 1
Width: 1200
GlyphClass: 1
Flags: W
LayerCount: 2
Fore
SplineSet
1960 160 m 0
 1982 160 2000 178 2000 200 c 0
 2000 222 1982 240 1960 240 c 0
 1938 240 1920 222 1920 200 c 0
 1920 178 1938 160 1960 160 c 0
EndSplineSet
EndChar

StartChar: A
Encoding: 65 65 10
Width: 799
VWidth: 285
GlyphClass: 1
Flags: HW
LayerCount: 2
Fore
SplineSet
342.857421875 0 m 2
 571.428710938 0 l 1
 571.428710938 63.142578125 520.286132812 114.286132812 457.142578125 114.286132812 c 2
 228.571289062 114.286132812 l 1
 228.571289062 51.142578125 279.713867188 0 342.857421875 0 c 2
571.428710938 0 m 1
 685.713867188 0 l 2
 748.857421875 0 800 51.142578125 800 114.286132812 c 1
 685.713867188 114.286132812 l 1
 685.713867188 51.142578125 634.571289062 0 571.428710938 0 c 1
228.571289062 114.286132812 m 1
 228.571289062 177.428710938 279.713867188 228.571289062 342.857421875 228.571289062 c 2
 457.142578125 228.571289062 l 2
 520.286132812 228.571289062 571.428710938 279.713867188 571.428710938 342.857421875 c 1
 342.857421875 342.857421875 l 2
 279.713867188 342.857421875 228.571289062 291.713867188 228.571289062 228.571289062 c 2
 228.571289062 114.286132812 l 1
114.286132812 342.857421875 m 1
 114.286132812 457.142578125 l 1
 457.142578125 457.142578125 l 2
 520.286132812 457.142578125 571.428710938 406 571.428710938 342.857421875 c 1
 571.428710938 457.142578125 l 2
 571.428710938 520.286132812 520.286132812 571.428710938 457.142578125 571.428710938 c 2
 114.286132812 571.428710938 l 2
 51.142578125 571.428710938 0 520.286132812 0 457.142578125 c 1
 63.142578125 457.142578125 114.286132812 406 114.286132812 342.857421875 c 1
EndSplineSet
EndChar

StartChar: B
Encoding: 66 66 11
Width: 685
VWidth: 285
GlyphClass: 1
Flags: HW
LayerCount: 2
Fore
SplineSet
228.571289062 0 m 1
 457.142578125 0 l 1
 394 0 342.857421875 51.142578125 342.857421875 114.286132812 c 1
 279.713867188 114.286132812 228.571289062 63.142578125 228.571289062 0 c 1
457.142578125 0 m 1
 571.428710938 0 l 2
 634.571289062 0 685.713867188 51.142578125 685.713867188 114.286132812 c 1
 571.428710938 114.286132812 l 1
 571.428710938 51.142578125 520.286132812 0 457.142578125 0 c 1
114.286132812 0 m 1
 177.428710938 0 228.571289062 51.142578125 228.571289062 114.286132812 c 2
 228.571289062 228.571289062 l 2
 228.571289062 291.713867188 279.713867188 342.857421875 342.857421875 342.857421875 c 2
 457.142578125 342.857421875 l 1
 457.142578125 228.571289062 l 2
 457.142578125 165.428710938 406 114.286132812 342.857421875 114.286132812 c 1
 457.142578125 114.286132812 l 2
 520.286132812 114.286132812 571.428710938 165.428710938 571.428710938 228.571289062 c 2
 571.428710938 342.857421875 l 2
 571.428710938 406 520.286132812 457.142578125 457.142578125 457.142578125 c 2
 342.857421875 457.142578125 l 1
 342.857421875 394 291.713867188 342.857421875 228.571289062 342.857421875 c 1
 228.571289062 457.142578125 l 2
 228.571289062 520.286132812 177.428710938 571.428710938 114.286132812 571.428710938 c 1
 114.286132812 508.286132812 63.142578125 457.142578125 0 457.142578125 c 1
 114.286132812 457.142578125 l 1
 114.286132812 0 l 1
285.713867188 571.428710938 m 2
 342.857421875 571.428710938 l 1
 342.857421875 628.571289062 l 2
 342.857421875 660 317.142578125 685.713867188 285.713867188 685.713867188 c 2
 228.571289062 685.713867188 l 1
 228.571289062 628.571289062 l 2
 228.571289062 597.142578125 254.286132812 571.428710938 285.713867188 571.428710938 c 2
EndSplineSet
EndChar

StartChar: C
Encoding: 67 67 12
Width: 914
VWidth: 285
GlyphClass: 1
Flags: HW
LayerCount: 2
Fore
SplineSet
571.428710938 -114.286132812 m 1
 685.713867188 -114.286132812 l 2
 748.857421875 -114.286132812 800 -63.142578125 800 0 c 1
 863.142578125 0 914.286132812 51.142578125 914.286132812 114.286132812 c 0
 914.286132812 177.428710938 863.142578125 228.571289062 800 228.571289062 c 2
 685.713867188 228.571289062 l 1
 748.857421875 228.571289062 800 177.428710938 800 114.286132812 c 0
 800 51.142578125 748.857421875 0 685.713867188 0 c 1
 685.713867188 -63.142578125 634.571289062 -114.286132812 571.428710938 -114.286132812 c 1
457.142578125 -114.286132812 m 2
 571.428710938 -114.286132812 l 1
 508.286132812 -114.286132812 457.142578125 -63.142578125 457.142578125 0 c 2
 457.142578125 342.857421875 l 1
 571.428710938 342.857421875 l 1
 571.428710938 114.286132812 l 2
 571.428710938 51.142578125 520.286132812 0 457.142578125 0 c 1
 571.428710938 0 l 2
 634.571289062 0 685.713867188 51.142578125 685.713867188 114.286132812 c 2
 685.713867188 342.857421875 l 2
 685.713867188 406 634.571289062 457.142578125 571.428710938 457.142578125 c 2
 457.142578125 457.142578125 l 1
 457.142578125 394 406 342.857421875 342.857421875 342.857421875 c 1
 342.857421875 0 l 2
 342.857421875 -63.142578125 394 -114.286132812 457.142578125 -114.286132812 c 2
228.571289062 0 m 2
 342.857421875 0 l 1
 279.713867188 0 228.571289062 51.142578125 228.571289062 114.286132812 c 2
 228.571289062 457.142578125 l 2
 228.571289062 520.286132812 177.428710938 571.428710938 114.286132812 571.428710938 c 1
 114.286132812 508.286132812 63.142578125 457.142578125 0 457.142578125 c 1
 114.286132812 457.142578125 l 1
 114.286132812 114.286132812 l 2
 114.286132812 51.142578125 165.428710938 0 228.571289062 0 c 2
285.713867188 571.428710938 m 2
 342.857421875 571.428710938 l 1
 342.857421875 628.571289062 l 2
 342.857421875 660 317.142578125 685.713867188 285.713867188 685.713867188 c 2
 228.571289062 685.713867188 l 1
 228.571289062 628.571289062 l 2
 228.571289062 597.142578125 254.286132812 571.428710938 285.713867188 571.428710938 c 2
400 685.713867188 m 2
 457.142578125 685.713867188 l 1
 457.142578125 742.857421875 l 2
 457.142578125 774.286132812 431.428710938 800 400 800 c 2
 342.857421875 800 l 1
 342.857421875 742.857421875 l 2
 342.857421875 711.428710938 368.571289062 685.713867188 400 685.713867188 c 2
EndSplineSet
EndChar

StartChar: D
Encoding: 68 68 13
Width: 571
VWidth: 285
GlyphClass: 1
Flags: HW
LayerCount: 2
Fore
SplineSet
342.857421875 0 m 1
 457.142578125 0 l 2
 520.286132812 0 571.428710938 51.142578125 571.428710938 114.286132812 c 1
 457.142578125 114.286132812 l 1
 457.142578125 51.142578125 406 0 342.857421875 0 c 1
400 228.571289062 m 2
 457.142578125 228.571289062 l 1
 457.142578125 285.713867188 l 2
 457.142578125 317.142578125 431.428710938 342.857421875 400 342.857421875 c 2
 342.857421875 342.857421875 l 1
 342.857421875 285.713867188 l 2
 342.857421875 254.286132812 368.571289062 228.571289062 400 228.571289062 c 2
228.571289062 0 m 2
 342.857421875 0 l 1
 279.713867188 0 228.571289062 51.142578125 228.571289062 114.286132812 c 2
 228.571289062 457.142578125 l 2
 228.571289062 520.286132812 177.428710938 571.428710938 114.286132812 571.428710938 c 5
 114.286132812 508.286132812 63.142578125 457.142578125 0 457.142578125 c 1
 114.286132812 457.142578125 l 1
 114.286132812 114.286132812 l 2
 114.286132812 51.142578125 165.428710938 0 228.571289062 0 c 2
EndSplineSet
EndChar

StartChar: E
Encoding: 69 69 14
Width: 571
VWidth: 285
GlyphClass: 1
Flags: HW
LayerCount: 2
Fore
SplineSet
342.857421875 0 m 1
 457.142578125 0 l 2
 520.286132812 0 571.428710938 51.142578125 571.428710938 114.286132812 c 1
 457.142578125 114.286132812 l 1
 457.142578125 51.142578125 406 0 342.857421875 0 c 1
228.571289062 0 m 2
 342.857421875 0 l 1
 279.713867188 0 228.571289062 51.142578125 228.571289062 114.286132812 c 2
 228.571289062 685.713867188 l 2
 228.571289062 748.857421875 177.428710938 800 114.286132812 800 c 5
 114.286132812 736.857421875 63.142578125 685.713867188 0 685.713867188 c 1
 114.286132812 685.713867188 l 1
 114.286132812 114.286132812 l 2
 114.286132812 51.142578125 165.428710938 0 228.571289062 0 c 2
EndSplineSet
EndChar

StartChar: F
Encoding: 70 70 15
Width: 685
VWidth: 285
GlyphClass: 1
Flags: HW
LayerCount: 2
Fore
SplineSet
228.571289062 0 m 1
 457.142578125 0 l 1
 394 0 342.857421875 51.142578125 342.857421875 114.286132812 c 1
 279.713867188 114.286132812 228.571289062 63.142578125 228.571289062 0 c 1
457.142578125 0 m 1
 571.428710938 0 l 2
 634.571289062 0 685.713867188 51.142578125 685.713867188 114.286132812 c 1
 571.428710938 114.286132812 l 1
 571.428710938 51.142578125 520.286132812 0 457.142578125 0 c 1
114.286132812 -342.857421875 m 1
 177.428710938 -342.857421875 228.571289062 -291.713867188 228.571289062 -228.571289062 c 2
 228.571289062 228.571289062 l 2
 228.571289062 291.713867188 279.713867188 342.857421875 342.857421875 342.857421875 c 2
 457.142578125 342.857421875 l 1
 457.142578125 228.571289062 l 2
 457.142578125 165.428710938 406 114.286132812 342.857421875 114.286132812 c 1
 457.142578125 114.286132812 l 2
 520.286132812 114.286132812 571.428710938 165.428710938 571.428710938 228.571289062 c 2
 571.428710938 342.857421875 l 2
 571.428710938 406 520.286132812 457.142578125 457.142578125 457.142578125 c 2
 342.857421875 457.142578125 l 1
 342.857421875 394 291.713867188 342.857421875 228.571289062 342.857421875 c 1
 228.571289062 457.142578125 l 2
 228.571289062 520.286132812 177.428710938 571.428710938 114.286132812 571.428710938 c 1
 114.286132812 508.286132812 63.142578125 457.142578125 0 457.142578125 c 1
 114.286132812 457.142578125 l 1
 114.286132812 -342.857421875 l 1
285.713867188 571.428710938 m 2
 342.857421875 571.428710938 l 1
 342.857421875 628.571289062 l 2
 342.857421875 660 317.142578125 685.713867188 285.713867188 685.713867188 c 2
 228.571289062 685.713867188 l 1
 228.571289062 628.571289062 l 2
 228.571289062 597.142578125 254.286132812 571.428710938 285.713867188 571.428710938 c 2
400 685.713867188 m 2
 457.142578125 685.713867188 l 1
 457.142578125 742.857421875 l 2
 457.142578125 774.286132812 431.428710938 800 400 800 c 2
 342.857421875 800 l 1
 342.857421875 742.857421875 l 2
 342.857421875 711.428710938 368.571289062 685.713867188 400 685.713867188 c 2
EndSplineSet
EndChar

StartChar: G
Encoding: 71 71 16
Width: 685
VWidth: 285
GlyphClass: 1
Flags: HW
LayerCount: 2
Fore
SplineSet
342.857421875 0 m 1
 406 0 457.142578125 51.142578125 457.142578125 114.286132812 c 2
 457.142578125 342.857421875 l 1
 571.428710938 342.857421875 l 1
 571.428710938 114.286132812 l 1
 457.142578125 114.286132812 l 1
 520.286132812 114.286132812 571.428710938 63.142578125 571.428710938 0 c 1
 634.571289062 0 685.713867188 51.142578125 685.713867188 114.286132812 c 2
 685.713867188 342.857421875 l 2
 685.713867188 406 634.571289062 457.142578125 571.428710938 457.142578125 c 2
 457.142578125 457.142578125 l 1
 457.142578125 394 406 342.857421875 342.857421875 342.857421875 c 1
 342.857421875 0 l 1
228.571289062 0 m 2
 342.857421875 0 l 1
 279.713867188 0 228.571289062 51.142578125 228.571289062 114.286132812 c 2
 228.571289062 457.142578125 l 2
 228.571289062 520.286132812 177.428710938 571.428710938 114.286132812 571.428710938 c 1
 114.286132812 508.286132812 63.142578125 457.142578125 0 457.142578125 c 1
 114.286132812 457.142578125 l 1
 114.286132812 114.286132812 l 2
 114.286132812 51.142578125 165.428710938 0 228.571289062 0 c 2
285.713867188 571.428710938 m 2
 342.857421875 571.428710938 l 1
 342.857421875 628.571289062 l 2
 342.857421875 660 317.142578125 685.713867188 285.713867188 685.713867188 c 2
 228.571289062 685.713867188 l 1
 228.571289062 628.571289062 l 2
 228.571289062 597.142578125 254.286132812 571.428710938 285.713867188 571.428710938 c 2
EndSplineSet
EndChar

StartChar: H
Encoding: 72 72 17
Width: 799
VWidth: 285
GlyphClass: 1
Flags: HW
LayerCount: 2
Fore
SplineSet
342.857421875 0 m 2
 571.428710938 0 l 1
 571.428710938 63.142578125 520.286132812 114.286132812 457.142578125 114.286132812 c 2
 228.571289062 114.286132812 l 1
 228.571289062 51.142578125 279.713867188 0 342.857421875 0 c 2
571.428710938 0 m 1
 685.713867188 0 l 2
 748.857421875 0 800 51.142578125 800 114.286132812 c 1
 685.713867188 114.286132812 l 1
 685.713867188 51.142578125 634.571289062 0 571.428710938 0 c 1
228.571289062 114.286132812 m 1
 228.571289062 177.428710938 279.713867188 228.571289062 342.857421875 228.571289062 c 2
 457.142578125 228.571289062 l 2
 520.286132812 228.571289062 571.428710938 279.713867188 571.428710938 342.857421875 c 1
 342.857421875 342.857421875 l 2
 279.713867188 342.857421875 228.571289062 291.713867188 228.571289062 228.571289062 c 2
 228.571289062 114.286132812 l 1
114.286132812 342.857421875 m 1
 114.286132812 457.142578125 l 1
 457.142578125 457.142578125 l 2
 520.286132812 457.142578125 571.428710938 406 571.428710938 342.857421875 c 1
 571.428710938 457.142578125 l 2
 571.428710938 520.286132812 520.286132812 571.428710938 457.142578125 571.428710938 c 2
 114.286132812 571.428710938 l 2
 51.142578125 571.428710938 0 520.286132812 0 457.142578125 c 1
 63.142578125 457.142578125 114.286132812 406 114.286132812 342.857421875 c 1
628.571289062 571.428710938 m 2
 685.713867188 571.428710938 l 1
 685.713867188 628.571289062 l 2
 685.713867188 660 660 685.713867188 628.571289062 685.713867188 c 2
 571.428710938 685.713867188 l 1
 571.428710938 628.571289062 l 2
 571.428710938 597.142578125 597.142578125 571.428710938 628.571289062 571.428710938 c 2
EndSplineSet
EndChar

StartChar: I
Encoding: 73 73 18
Width: 571
VWidth: 285
GlyphClass: 1
Flags: HW
LayerCount: 2
Fore
SplineSet
342.857421875 0 m 1
 457.142578125 0 l 2
 520.286132812 0 571.428710938 51.142578125 571.428710938 114.286132812 c 1
 457.142578125 114.286132812 l 1
 457.142578125 51.142578125 406 0 342.857421875 0 c 1
400 228.571289062 m 2
 457.142578125 228.571289062 l 1
 457.142578125 285.713867188 l 2
 457.142578125 317.142578125 431.428710938 342.857421875 400 342.857421875 c 2
 342.857421875 342.857421875 l 1
 342.857421875 285.713867188 l 2
 342.857421875 254.286132812 368.571289062 228.571289062 400 228.571289062 c 2
228.571289062 0 m 2
 342.857421875 0 l 1
 279.713867188 0 228.571289062 51.142578125 228.571289062 114.286132812 c 2
 228.571289062 685.713867188 l 2
 228.571289062 748.857421875 177.428710938 800 114.286132812 800 c 1
 114.286132812 736.857421875 63.142578125 685.713867188 0 685.713867188 c 1
 114.286132812 685.713867188 l 1
 114.286132812 114.286132812 l 2
 114.286132812 51.142578125 165.428710938 0 228.571289062 0 c 2
EndSplineSet
EndChar

StartChar: J
Encoding: 74 74 19
Width: 914
VWidth: 285
GlyphClass: 1
Flags: HW
LayerCount: 2
Fore
SplineSet
571.428710938 -114.286132812 m 1
 685.713867188 -114.286132812 l 2
 748.857421875 -114.286132812 800 -63.142578125 800 0 c 1
 863.142578125 0 914.286132812 51.142578125 914.286132812 114.286132812 c 0
 914.286132812 177.428710938 863.142578125 228.571289062 800 228.571289062 c 2
 685.713867188 228.571289062 l 1
 748.857421875 228.571289062 800 177.428710938 800 114.286132812 c 0
 800 51.142578125 748.857421875 0 685.713867188 0 c 1
 685.713867188 -63.142578125 634.571289062 -114.286132812 571.428710938 -114.286132812 c 1
457.142578125 -114.286132812 m 2
 571.428710938 -114.286132812 l 1
 508.286132812 -114.286132812 457.142578125 -63.142578125 457.142578125 0 c 2
 457.142578125 342.857421875 l 1
 571.428710938 342.857421875 l 1
 571.428710938 114.286132812 l 2
 571.428710938 51.142578125 520.286132812 0 457.142578125 0 c 1
 571.428710938 0 l 2
 634.571289062 0 685.713867188 51.142578125 685.713867188 114.286132812 c 2
 685.713867188 342.857421875 l 2
 685.713867188 406 634.571289062 457.142578125 571.428710938 457.142578125 c 2
 457.142578125 457.142578125 l 1
 457.142578125 394 406 342.857421875 342.857421875 342.857421875 c 1
 342.857421875 0 l 2
 342.857421875 -63.142578125 394 -114.286132812 457.142578125 -114.286132812 c 2
228.571289062 0 m 2
 342.857421875 0 l 1
 279.713867188 0 228.571289062 51.142578125 228.571289062 114.286132812 c 2
 228.571289062 457.142578125 l 2
 228.571289062 520.286132812 177.428710938 571.428710938 114.286132812 571.428710938 c 1
 114.286132812 508.286132812 63.142578125 457.142578125 0 457.142578125 c 1
 114.286132812 457.142578125 l 1
 114.286132812 114.286132812 l 2
 114.286132812 51.142578125 165.428710938 0 228.571289062 0 c 2
285.713867188 571.428710938 m 2
 342.857421875 571.428710938 l 1
 342.857421875 628.571289062 l 2
 342.857421875 660 317.142578125 685.713867188 285.713867188 685.713867188 c 2
 228.571289062 685.713867188 l 1
 228.571289062 628.571289062 l 2
 228.571289062 597.142578125 254.286132812 571.428710938 285.713867188 571.428710938 c 2
EndSplineSet
EndChar

StartChar: K
Encoding: 75 75 20
Width: 685
VWidth: 285
GlyphClass: 1
Flags: HW
LayerCount: 2
Fore
SplineSet
342.857421875 0 m 1
 406 0 457.142578125 51.142578125 457.142578125 114.286132812 c 2
 457.142578125 342.857421875 l 1
 571.428710938 342.857421875 l 1
 571.428710938 114.286132812 l 1
 457.142578125 114.286132812 l 1
 520.286132812 114.286132812 571.428710938 63.142578125 571.428710938 0 c 1
 634.571289062 0 685.713867188 51.142578125 685.713867188 114.286132812 c 2
 685.713867188 342.857421875 l 2
 685.713867188 406 634.571289062 457.142578125 571.428710938 457.142578125 c 2
 457.142578125 457.142578125 l 1
 457.142578125 394 406 342.857421875 342.857421875 342.857421875 c 1
 342.857421875 0 l 1
228.571289062 0 m 2
 342.857421875 0 l 1
 279.713867188 0 228.571289062 51.142578125 228.571289062 114.286132812 c 2
 228.571289062 457.142578125 l 2
 228.571289062 520.286132812 177.428710938 571.428710938 114.286132812 571.428710938 c 1
 114.286132812 508.286132812 63.142578125 457.142578125 0 457.142578125 c 1
 114.286132812 457.142578125 l 1
 114.286132812 114.286132812 l 2
 114.286132812 51.142578125 165.428710938 0 228.571289062 0 c 2
285.713867188 571.428710938 m 2
 342.857421875 571.428710938 l 1
 342.857421875 628.571289062 l 2
 342.857421875 660 317.142578125 685.713867188 285.713867188 685.713867188 c 2
 228.571289062 685.713867188 l 1
 228.571289062 628.571289062 l 2
 228.571289062 597.142578125 254.286132812 571.428710938 285.713867188 571.428710938 c 2
400 685.713867188 m 2
 457.142578125 685.713867188 l 1
 457.142578125 742.857421875 l 2
 457.142578125 774.286132812 431.428710938 800 400 800 c 2
 342.857421875 800 l 1
 342.857421875 742.857421875 l 2
 342.857421875 711.428710938 368.571289062 685.713867188 400 685.713867188 c 2
EndSplineSet
EndChar

StartChar: L
Encoding: 76 76 21
Width: 799
VWidth: 285
GlyphClass: 1
Flags: HW
LayerCount: 2
Fore
SplineSet
228.571289062 -228.571289062 m 1
 228.571289062 0 l 2
 228.571289062 63.142578125 279.713867188 114.286132812 342.857421875 114.286132812 c 1
 228.571289062 114.286132812 l 2
 165.428710938 114.286132812 114.286132812 63.142578125 114.286132812 0 c 2
 114.286132812 -114.286132812 l 2
 114.286132812 -177.428710938 165.428710938 -228.571289062 228.571289062 -228.571289062 c 1
571.428710938 0 m 1
 685.713867188 0 l 2
 748.857421875 0 800 51.142578125 800 114.286132812 c 0
 800 177.428710938 748.857421875 228.571289062 685.713867188 228.571289062 c 2
 571.428710938 228.571289062 l 1
 634.571289062 228.571289062 685.713867188 177.428710938 685.713867188 114.286132812 c 0
 685.713867188 51.142578125 634.571289062 0 571.428710938 0 c 1
228.571289062 -228.571289062 m 1
 342.857421875 -228.571289062 l 2
 406 -228.571289062 457.142578125 -177.428710938 457.142578125 -114.286132812 c 2
 457.142578125 0 l 1
 571.428710938 0 l 1
 508.286132812 0 457.142578125 51.142578125 457.142578125 114.286132812 c 2
 457.142578125 228.571289062 l 2
 457.142578125 291.713867188 406 342.857421875 342.857421875 342.857421875 c 1
 342.857421875 279.713867188 291.713867188 228.571289062 228.571289062 228.571289062 c 1
 342.857421875 228.571289062 l 1
 342.857421875 -114.286132812 l 2
 342.857421875 -177.428710938 291.713867188 -228.571289062 228.571289062 -228.571289062 c 1
114.286132812 114.286132812 m 1
 177.428710938 114.286132812 228.571289062 165.428710938 228.571289062 228.571289062 c 2
 228.571289062 457.142578125 l 2
 228.571289062 520.286132812 177.428710938 571.428710938 114.286132812 571.428710938 c 1
 114.286132812 508.286132812 63.142578125 457.142578125 0 457.142578125 c 1
 114.286132812 457.142578125 l 1
 114.286132812 114.286132812 l 1
EndSplineSet
EndChar

StartChar: M
Encoding: 77 77 22
Width: 685
VWidth: 285
GlyphClass: 1
Flags: HW
LayerCount: 2
Fore
SplineSet
228.571289062 0 m 1
 457.142578125 0 l 1
 394 0 342.857421875 51.142578125 342.857421875 114.286132812 c 1
 279.713867188 114.286132812 228.571289062 63.142578125 228.571289062 0 c 1
457.142578125 0 m 1
 571.428710938 0 l 2
 634.571289062 0 685.713867188 51.142578125 685.713867188 114.286132812 c 1
 571.428710938 114.286132812 l 1
 571.428710938 51.142578125 520.286132812 0 457.142578125 0 c 1
114.286132812 0 m 1
 177.428710938 0 228.571289062 51.142578125 228.571289062 114.286132812 c 2
 228.571289062 228.571289062 l 2
 228.571289062 291.713867188 279.713867188 342.857421875 342.857421875 342.857421875 c 2
 457.142578125 342.857421875 l 1
 457.142578125 228.571289062 l 2
 457.142578125 165.428710938 406 114.286132812 342.857421875 114.286132812 c 1
 457.142578125 114.286132812 l 2
 520.286132812 114.286132812 571.428710938 165.428710938 571.428710938 228.571289062 c 2
 571.428710938 342.857421875 l 2
 571.428710938 406 520.286132812 457.142578125 457.142578125 457.142578125 c 2
 342.857421875 457.142578125 l 1
 342.857421875 394 291.713867188 342.857421875 228.571289062 342.857421875 c 1
 228.571289062 457.142578125 l 2
 228.571289062 520.286132812 177.428710938 571.428710938 114.286132812 571.428710938 c 1
 114.286132812 508.286132812 63.142578125 457.142578125 0 457.142578125 c 1
 114.286132812 457.142578125 l 1
 114.286132812 0 l 1
EndSplineSet
EndChar

StartChar: N
Encoding: 78 78 23
Width: 571
VWidth: 285
GlyphClass: 1
Flags: HW
LayerCount: 2
Fore
SplineSet
342.857421875 0 m 1
 457.142578125 0 l 2
 520.286132812 0 571.428710938 51.142578125 571.428710938 114.286132812 c 1
 457.142578125 114.286132812 l 1
 457.142578125 51.142578125 406 0 342.857421875 0 c 1
228.571289062 0 m 2
 342.857421875 0 l 1
 279.713867188 0 228.571289062 51.142578125 228.571289062 114.286132812 c 2
 228.571289062 457.142578125 l 2
 228.571289062 520.286132812 177.428710938 571.428710938 114.286132812 571.428710938 c 1
 114.286132812 508.286132812 63.142578125 457.142578125 0 457.142578125 c 1
 114.286132812 457.142578125 l 1
 114.286132812 114.286132812 l 2
 114.286132812 51.142578125 165.428710938 0 228.571289062 0 c 2
EndSplineSet
EndChar

StartChar: O
Encoding: 79 79 24
Width: 914
VWidth: 285
GlyphClass: 1
Flags: HW
LayerCount: 2
Fore
SplineSet
800 0 m 1
 914.286132812 0 l 2
 977.428710938 0 1028.57128906 51.142578125 1028.57128906 114.286132812 c 0
 1028.57128906 177.428710938 977.428710938 228.571289062 914.286132812 228.571289062 c 2
 800 228.571289062 l 1
 863.142578125 228.571289062 914.286132812 177.428710938 914.286132812 114.286132812 c 0
 914.286132812 51.142578125 863.142578125 0 800 0 c 1
342.857421875 0 m 1
 342.857421875 228.571289062 l 2
 342.857421875 291.713867188 394 342.857421875 457.142578125 342.857421875 c 1
 342.857421875 342.857421875 l 2
 279.713867188 342.857421875 228.571289062 291.713867188 228.571289062 228.571289062 c 2
 228.571289062 114.286132812 l 2
 228.571289062 51.142578125 279.713867188 0 342.857421875 0 c 1
800 0 m 1
 800 228.571289062 l 2
 800 291.713867188 748.857421875 342.857421875 685.713867188 342.857421875 c 2
 571.428710938 342.857421875 l 1
 634.571289062 342.857421875 685.713867188 291.713867188 685.713867188 228.571289062 c 2
 685.713867188 114.286132812 l 2
 685.713867188 51.142578125 736.857421875 0 800 0 c 1
342.857421875 0 m 1
 457.142578125 0 l 2
 520.286132812 0 571.428710938 51.142578125 571.428710938 114.286132812 c 2
 571.428710938 457.142578125 l 2
 571.428710938 520.286132812 520.286132812 571.428710938 457.142578125 571.428710938 c 1
 457.142578125 508.286132812 406 457.142578125 342.857421875 457.142578125 c 1
 457.142578125 457.142578125 l 1
 457.142578125 114.286132812 l 2
 457.142578125 51.142578125 406 0 342.857421875 0 c 1
EndSplineSet
EndChar

StartChar: P
Encoding: 80 80 25
Width: 685
VWidth: 285
GlyphClass: 1
Flags: HW
LayerCount: 2
Fore
SplineSet
228.571289062 0 m 1
 457.142578125 0 l 1
 394 0 342.857421875 51.142578125 342.857421875 114.286132812 c 1
 279.713867188 114.286132812 228.571289062 63.142578125 228.571289062 0 c 1
457.142578125 0 m 1
 571.428710938 0 l 2
 634.571289062 0 685.713867188 51.142578125 685.713867188 114.286132812 c 1
 571.428710938 114.286132812 l 1
 571.428710938 51.142578125 520.286132812 0 457.142578125 0 c 1
114.286132812 0 m 1
 177.428710938 0 228.571289062 51.142578125 228.571289062 114.286132812 c 2
 228.571289062 228.571289062 l 2
 228.571289062 291.713867188 279.713867188 342.857421875 342.857421875 342.857421875 c 2
 457.142578125 342.857421875 l 1
 457.142578125 228.571289062 l 2
 457.142578125 165.428710938 406 114.286132812 342.857421875 114.286132812 c 1
 457.142578125 114.286132812 l 2
 520.286132812 114.286132812 571.428710938 165.428710938 571.428710938 228.571289062 c 2
 571.428710938 342.857421875 l 2
 571.428710938 406 520.286132812 457.142578125 457.142578125 457.142578125 c 2
 342.857421875 457.142578125 l 1
 342.857421875 394 291.713867188 342.857421875 228.571289062 342.857421875 c 1
 228.571289062 457.142578125 l 2
 228.571289062 520.286132812 177.428710938 571.428710938 114.286132812 571.428710938 c 1
 114.286132812 508.286132812 63.142578125 457.142578125 0 457.142578125 c 1
 114.286132812 457.142578125 l 1
 114.286132812 0 l 1
285.713867188 571.428710938 m 2
 342.857421875 571.428710938 l 1
 342.857421875 628.571289062 l 2
 342.857421875 660 317.142578125 685.713867188 285.713867188 685.713867188 c 2
 228.571289062 685.713867188 l 1
 228.571289062 628.571289062 l 2
 228.571289062 597.142578125 254.286132812 571.428710938 285.713867188 571.428710938 c 2
400 685.713867188 m 2
 457.142578125 685.713867188 l 1
 457.142578125 742.857421875 l 2
 457.142578125 774.286132812 431.428710938 800 400 800 c 2
 342.857421875 800 l 1
 342.857421875 742.857421875 l 2
 342.857421875 711.428710938 368.571289062 685.713867188 400 685.713867188 c 2
EndSplineSet
EndChar

StartChar: Q
Encoding: 81 81 26
Width: 685
VWidth: 285
GlyphClass: 1
Flags: HW
LayerCount: 2
Fore
SplineSet
342.857421875 0 m 1
 406 0 457.142578125 51.142578125 457.142578125 114.286132812 c 2
 457.142578125 342.857421875 l 1
 571.428710938 342.857421875 l 1
 571.428710938 114.286132812 l 1
 457.142578125 114.286132812 l 1
 520.286132812 114.286132812 571.428710938 63.142578125 571.428710938 0 c 1
 634.571289062 0 685.713867188 51.142578125 685.713867188 114.286132812 c 2
 685.713867188 342.857421875 l 2
 685.713867188 406 634.571289062 457.142578125 571.428710938 457.142578125 c 2
 457.142578125 457.142578125 l 1
 457.142578125 394 406 342.857421875 342.857421875 342.857421875 c 1
 342.857421875 0 l 1
228.571289062 0 m 2
 342.857421875 0 l 1
 279.713867188 0 228.571289062 51.142578125 228.571289062 114.286132812 c 2
 228.571289062 457.142578125 l 2
 228.571289062 520.286132812 177.428710938 571.428710938 114.286132812 571.428710938 c 1
 114.286132812 508.286132812 63.142578125 457.142578125 0 457.142578125 c 1
 114.286132812 457.142578125 l 1
 114.286132812 114.286132812 l 2
 114.286132812 51.142578125 165.428710938 0 228.571289062 0 c 2
EndSplineSet
EndChar

StartChar: R
Encoding: 82 82 27
Width: 457
VWidth: 285
GlyphClass: 1
Flags: HW
LayerCount: 2
Fore
SplineSet
228.571289062 0 m 1
 342.857421875 0 l 2
 406 0 457.142578125 51.142578125 457.142578125 114.286132812 c 2
 457.142578125 228.571289062 l 2
 457.142578125 291.713867188 406 342.857421875 342.857421875 342.857421875 c 2
 228.571289062 342.857421875 l 1
 291.713867188 342.857421875 342.857421875 291.713867188 342.857421875 228.571289062 c 2
 342.857421875 114.286132812 l 2
 342.857421875 51.142578125 291.713867188 0 228.571289062 0 c 1
228.571289062 -342.857421875 m 1
 228.571289062 457.142578125 l 2
 228.571289062 520.286132812 177.428710938 571.428710938 114.286132812 571.428710938 c 1
 114.286132812 508.286132812 63.142578125 457.142578125 0 457.142578125 c 1
 114.286132812 457.142578125 l 1
 114.286132812 -228.571289062 l 2
 114.286132812 -291.713867188 165.428710938 -342.857421875 228.571289062 -342.857421875 c 1
EndSplineSet
EndChar

StartChar: S
Encoding: 83 83 28
Width: 1142
VWidth: 285
GlyphClass: 1
Flags: HW
LayerCount: 2
Fore
SplineSet
342.857421875 0 m 1
 571.428710938 0 l 2
 634.571289062 0 685.713867188 51.142578125 685.713867188 114.286132812 c 1
 622.571289062 114.286132812 571.428710938 165.428710938 571.428710938 228.571289062 c 1
 571.428710938 114.286132812 l 1
 457.142578125 114.286132812 l 1
 457.142578125 51.142578125 406 0 342.857421875 0 c 1
914.286132812 0 m 1
 1028.57128906 0 l 2
 1091.71386719 0 1142.85742188 51.142578125 1142.85742188 114.286132812 c 0
 1142.85742188 177.428710938 1091.71386719 228.571289062 1028.57128906 228.571289062 c 2
 914.286132812 228.571289062 l 1
 977.428710938 228.571289062 1028.57128906 177.428710938 1028.57128906 114.286132812 c 0
 1028.57128906 51.142578125 977.428710938 0 914.286132812 0 c 1
400 228.571289062 m 2
 457.142578125 228.571289062 l 1
 457.142578125 285.713867188 l 2
 457.142578125 317.142578125 431.428710938 342.857421875 400 342.857421875 c 2
 342.857421875 342.857421875 l 1
 342.857421875 285.713867188 l 2
 342.857421875 254.286132812 368.571289062 228.571289062 400 228.571289062 c 2
914.286132812 0 m 1
 914.286132812 228.571289062 l 2
 914.286132812 291.713867188 863.142578125 342.857421875 800 342.857421875 c 2
 685.713867188 342.857421875 l 1
 685.713867188 279.713867188 634.571289062 228.571289062 571.428710938 228.571289062 c 1
 800 228.571289062 l 1
 800 114.286132812 l 2
 800 51.142578125 851.142578125 0 914.286132812 0 c 1
514.286132812 342.857421875 m 2
 571.428710938 342.857421875 l 1
 571.428710938 400 l 2
 571.428710938 431.428710938 545.713867188 457.142578125 514.286132812 457.142578125 c 2
 457.142578125 457.142578125 l 1
 457.142578125 400 l 2
 457.142578125 368.571289062 482.857421875 342.857421875 514.286132812 342.857421875 c 2
228.571289062 0 m 2
 342.857421875 0 l 1
 279.713867188 0 228.571289062 51.142578125 228.571289062 114.286132812 c 2
 228.571289062 457.142578125 l 2
 228.571289062 520.286132812 177.428710938 571.428710938 114.286132812 571.428710938 c 1
 114.286132812 508.286132812 63.142578125 457.142578125 0 457.142578125 c 1
 114.286132812 457.142578125 l 1
 114.286132812 114.286132812 l 2
 114.286132812 51.142578125 165.428710938 0 228.571289062 0 c 2
EndSplineSet
EndChar

StartChar: T
Encoding: 84 84 29
Width: 571
VWidth: 285
GlyphClass: 1
Flags: HW
LayerCount: 2
Fore
SplineSet
342.857421875 0 m 1
 457.142578125 0 l 2
 520.286132812 0 571.428710938 51.142578125 571.428710938 114.286132812 c 1
 457.142578125 114.286132812 l 1
 457.142578125 51.142578125 406 0 342.857421875 0 c 1
400 228.571289062 m 2
 457.142578125 228.571289062 l 1
 457.142578125 285.713867188 l 2
 457.142578125 317.142578125 431.428710938 342.857421875 400 342.857421875 c 2
 342.857421875 342.857421875 l 1
 342.857421875 285.713867188 l 2
 342.857421875 254.286132812 368.571289062 228.571289062 400 228.571289062 c 2
514.286132812 342.857421875 m 2
 571.428710938 342.857421875 l 1
 571.428710938 400 l 2
 571.428710938 431.428710938 545.713867188 457.142578125 514.286132812 457.142578125 c 2
 457.142578125 457.142578125 l 1
 457.142578125 400 l 2
 457.142578125 368.571289062 482.857421875 342.857421875 514.286132812 342.857421875 c 2
228.571289062 0 m 2
 342.857421875 0 l 1
 279.713867188 0 228.571289062 51.142578125 228.571289062 114.286132812 c 2
 228.571289062 457.142578125 l 2
 228.571289062 520.286132812 177.428710938 571.428710938 114.286132812 571.428710938 c 1
 114.286132812 508.286132812 63.142578125 457.142578125 0 457.142578125 c 1
 114.286132812 457.142578125 l 1
 114.286132812 114.286132812 l 2
 114.286132812 51.142578125 165.428710938 0 228.571289062 0 c 2
EndSplineSet
EndChar

StartChar: U
Encoding: 85 85 30
Width: 914
VWidth: 285
GlyphClass: 1
Flags: HW
LayerCount: 2
Fore
SplineSet
800 0 m 1
 914.286132812 0 l 2
 977.428710938 0 1028.57128906 51.142578125 1028.57128906 114.286132812 c 0
 1028.57128906 177.428710938 977.428710938 228.571289062 914.286132812 228.571289062 c 2
 800 228.571289062 l 1
 863.142578125 228.571289062 914.286132812 177.428710938 914.286132812 114.286132812 c 0
 914.286132812 51.142578125 863.142578125 0 800 0 c 1
342.857421875 0 m 1
 342.857421875 228.571289062 l 2
 342.857421875 291.713867188 394 342.857421875 457.142578125 342.857421875 c 1
 342.857421875 342.857421875 l 2
 279.713867188 342.857421875 228.571289062 291.713867188 228.571289062 228.571289062 c 2
 228.571289062 114.286132812 l 2
 228.571289062 51.142578125 279.713867188 0 342.857421875 0 c 1
800 0 m 1
 800 228.571289062 l 2
 800 291.713867188 748.857421875 342.857421875 685.713867188 342.857421875 c 2
 571.428710938 342.857421875 l 1
 634.571289062 342.857421875 685.713867188 291.713867188 685.713867188 228.571289062 c 2
 685.713867188 114.286132812 l 2
 685.713867188 51.142578125 736.857421875 0 800 0 c 1
857.142578125 342.857421875 m 2
 914.286132812 342.857421875 l 1
 914.286132812 400 l 2
 914.286132812 431.428710938 888.571289062 457.142578125 857.142578125 457.142578125 c 2
 800 457.142578125 l 1
 800 400 l 2
 800 368.571289062 825.713867188 342.857421875 857.142578125 342.857421875 c 2
342.857421875 0 m 1
 457.142578125 0 l 2
 520.286132812 0 571.428710938 51.142578125 571.428710938 114.286132812 c 2
 571.428710938 457.142578125 l 2
 571.428710938 520.286132812 520.286132812 571.428710938 457.142578125 571.428710938 c 1
 457.142578125 508.286132812 406 457.142578125 342.857421875 457.142578125 c 1
 457.142578125 457.142578125 l 1
 457.142578125 114.286132812 l 2
 457.142578125 51.142578125 406 0 342.857421875 0 c 1
EndSplineSet
EndChar

StartChar: V
Encoding: 86 86 31
Width: 685
VWidth: 285
GlyphClass: 1
Flags: HW
LayerCount: 2
Fore
SplineSet
228.571289062 0 m 1
 457.142578125 0 l 1
 394 0 342.857421875 51.142578125 342.857421875 114.286132812 c 1
 279.713867188 114.286132812 228.571289062 63.142578125 228.571289062 0 c 1
457.142578125 0 m 1
 571.428710938 0 l 2
 634.571289062 0 685.713867188 51.142578125 685.713867188 114.286132812 c 1
 571.428710938 114.286132812 l 1
 571.428710938 51.142578125 520.286132812 0 457.142578125 0 c 1
114.286132812 -342.857421875 m 1
 177.428710938 -342.857421875 228.571289062 -291.713867188 228.571289062 -228.571289062 c 2
 228.571289062 228.571289062 l 2
 228.571289062 291.713867188 279.713867188 342.857421875 342.857421875 342.857421875 c 2
 457.142578125 342.857421875 l 1
 457.142578125 228.571289062 l 2
 457.142578125 165.428710938 406 114.286132812 342.857421875 114.286132812 c 1
 457.142578125 114.286132812 l 2
 520.286132812 114.286132812 571.428710938 165.428710938 571.428710938 228.571289062 c 2
 571.428710938 342.857421875 l 2
 571.428710938 406 520.286132812 457.142578125 457.142578125 457.142578125 c 2
 342.857421875 457.142578125 l 1
 342.857421875 394 291.713867188 342.857421875 228.571289062 342.857421875 c 1
 228.571289062 457.142578125 l 2
 228.571289062 520.286132812 177.428710938 571.428710938 114.286132812 571.428710938 c 1
 114.286132812 508.286132812 63.142578125 457.142578125 0 457.142578125 c 1
 114.286132812 457.142578125 l 1
 114.286132812 -342.857421875 l 1
285.713867188 571.428710938 m 2
 342.857421875 571.428710938 l 1
 342.857421875 628.571289062 l 2
 342.857421875 660 317.142578125 685.713867188 285.713867188 685.713867188 c 2
 228.571289062 685.713867188 l 1
 228.571289062 628.571289062 l 2
 228.571289062 597.142578125 254.286132812 571.428710938 285.713867188 571.428710938 c 2
EndSplineSet
EndChar

StartChar: W
Encoding: 87 87 32
Width: 914
VWidth: 285
GlyphClass: 1
Flags: HW
LayerCount: 2
Fore
SplineSet
800 0 m 1
 914.286132812 0 l 2
 977.428710938 0 1028.57128906 51.142578125 1028.57128906 114.286132812 c 0
 1028.57128906 177.428710938 977.428710938 228.571289062 914.286132812 228.571289062 c 2
 800 228.571289062 l 1
 863.142578125 228.571289062 914.286132812 177.428710938 914.286132812 114.286132812 c 0
 914.286132812 51.142578125 863.142578125 0 800 0 c 1
342.857421875 0 m 1
 342.857421875 228.571289062 l 2
 342.857421875 291.713867188 394 342.857421875 457.142578125 342.857421875 c 1
 342.857421875 342.857421875 l 2
 279.713867188 342.857421875 228.571289062 291.713867188 228.571289062 228.571289062 c 2
 228.571289062 114.286132812 l 2
 228.571289062 51.142578125 279.713867188 0 342.857421875 0 c 1
800 0 m 1
 800 228.571289062 l 2
 800 291.713867188 748.857421875 342.857421875 685.713867188 342.857421875 c 2
 571.428710938 342.857421875 l 1
 634.571289062 342.857421875 685.713867188 291.713867188 685.713867188 228.571289062 c 2
 685.713867188 114.286132812 l 2
 685.713867188 51.142578125 736.857421875 0 800 0 c 1
342.857421875 0 m 1
 457.142578125 0 l 2
 520.286132812 0 571.428710938 51.142578125 571.428710938 114.286132812 c 2
 571.428710938 457.142578125 l 2
 571.428710938 520.286132812 520.286132812 571.428710938 457.142578125 571.428710938 c 1
 457.142578125 508.286132812 406 457.142578125 342.857421875 457.142578125 c 1
 457.142578125 457.142578125 l 1
 457.142578125 114.286132812 l 2
 457.142578125 51.142578125 406 0 342.857421875 0 c 1
EndSplineSet
EndChar

StartChar: X
Encoding: 88 88 33
Width: 457
VWidth: 285
GlyphClass: 1
Flags: HW
LayerCount: 2
Fore
SplineSet
228.571289062 0 m 1
 228.571289062 114.286132812 l 2
 228.571289062 177.428710938 177.428710938 228.571289062 114.286132812 228.571289062 c 1
 114.286132812 165.428710938 63.142578125 114.286132812 0 114.286132812 c 1
 114.286132812 114.286132812 l 1
 114.286132812 51.142578125 165.428710938 0 228.571289062 0 c 1
228.571289062 0 m 1
 342.857421875 0 l 2
 406 0 457.142578125 51.142578125 457.142578125 114.286132812 c 0
 457.142578125 177.428710938 406 228.571289062 342.857421875 228.571289062 c 2
 228.571289062 228.571289062 l 1
 291.713867188 228.571289062 342.857421875 177.428710938 342.857421875 114.286132812 c 0
 342.857421875 51.142578125 291.713867188 0 228.571289062 0 c 1
EndSplineSet
EndChar

StartChar: Y
Encoding: 89 89 34
Width: 571
VWidth: 285
GlyphClass: 1
Flags: HW
LayerCount: 2
Fore
SplineSet
342.857421875 0 m 1
 457.142578125 0 l 2
 520.286132812 0 571.428710938 51.142578125 571.428710938 114.286132812 c 1
 457.142578125 114.286132812 l 1
 457.142578125 51.142578125 406 0 342.857421875 0 c 1
228.571289062 0 m 2
 342.857421875 0 l 1
 279.713867188 0 228.571289062 51.142578125 228.571289062 114.286132812 c 2
 228.571289062 685.713867188 l 2
 228.571289062 748.857421875 177.428710938 800 114.286132812 800 c 1
 114.286132812 736.857421875 63.142578125 685.713867188 0 685.713867188 c 1
 114.286132812 685.713867188 l 1
 114.286132812 114.286132812 l 2
 114.286132812 51.142578125 165.428710938 0 228.571289062 0 c 2
EndSplineSet
EndChar

StartChar: Z
Encoding: 90 90 35
Width: 1142
VWidth: 285
GlyphClass: 1
Flags: HW
LayerCount: 2
Fore
SplineSet
342.857421875 0 m 1
 571.428710938 0 l 2
 634.571289062 0 685.713867188 51.142578125 685.713867188 114.286132812 c 1
 622.571289062 114.286132812 571.428710938 165.428710938 571.428710938 228.571289062 c 1
 571.428710938 114.286132812 l 1
 457.142578125 114.286132812 l 1
 457.142578125 51.142578125 406 0 342.857421875 0 c 1
914.286132812 0 m 1
 1028.57128906 0 l 2
 1091.71386719 0 1142.85742188 51.142578125 1142.85742188 114.286132812 c 0
 1142.85742188 177.428710938 1091.71386719 228.571289062 1028.57128906 228.571289062 c 2
 914.286132812 228.571289062 l 1
 977.428710938 228.571289062 1028.57128906 177.428710938 1028.57128906 114.286132812 c 0
 1028.57128906 51.142578125 977.428710938 0 914.286132812 0 c 1
400 228.571289062 m 2
 457.142578125 228.571289062 l 1
 457.142578125 285.713867188 l 2
 457.142578125 317.142578125 431.428710938 342.857421875 400 342.857421875 c 2
 342.857421875 342.857421875 l 1
 342.857421875 285.713867188 l 2
 342.857421875 254.286132812 368.571289062 228.571289062 400 228.571289062 c 2
914.286132812 0 m 1
 914.286132812 228.571289062 l 2
 914.286132812 291.713867188 863.142578125 342.857421875 800 342.857421875 c 2
 685.713867188 342.857421875 l 1
 685.713867188 279.713867188 634.571289062 228.571289062 571.428710938 228.571289062 c 1
 800 228.571289062 l 1
 800 114.286132812 l 2
 800 51.142578125 851.142578125 0 914.286132812 0 c 1
228.571289062 0 m 2
 342.857421875 0 l 1
 279.713867188 0 228.571289062 51.142578125 228.571289062 114.286132812 c 2
 228.571289062 457.142578125 l 2
 228.571289062 520.286132812 177.428710938 571.428710938 114.286132812 571.428710938 c 1
 114.286132812 508.286132812 63.142578125 457.142578125 0 457.142578125 c 1
 114.286132812 457.142578125 l 1
 114.286132812 114.286132812 l 2
 114.286132812 51.142578125 165.428710938 0 228.571289062 0 c 2
EndSplineSet
EndChar

StartChar: b
Encoding: 98 98 36
Width: 685
VWidth: 285
GlyphClass: 1
Flags: HW
LayerCount: 2
Fore
SplineSet
228.571289062 0 m 1
 457.142578125 0 l 1
 394 0 342.857421875 51.142578125 342.857421875 114.286132812 c 1
 279.713867188 114.286132812 228.571289062 63.142578125 228.571289062 0 c 1
457.142578125 0 m 1
 571.428710938 0 l 2
 634.571289062 0 685.713867188 51.142578125 685.713867188 114.286132812 c 1
 571.428710938 114.286132812 l 1
 571.428710938 51.142578125 520.286132812 0 457.142578125 0 c 1
114.286132812 0 m 1
 177.428710938 0 228.571289062 51.142578125 228.571289062 114.286132812 c 0
 228.571289062 177.428710938 279.713867188 228.571289062 342.857421875 228.571289062 c 1
 342.857421875 114.286132812 l 1
 406 114.286132812 457.142578125 165.428710938 457.142578125 228.571289062 c 0
 457.142578125 291.713867188 406 342.857421875 342.857421875 342.857421875 c 1
 342.857421875 279.713867188 291.713867188 228.571289062 228.571289062 228.571289062 c 2
 114.286132812 228.571289062 l 1
 114.286132812 165.428710938 63.142578125 114.286132812 0 114.286132812 c 1
 114.286132812 114.286132812 l 1
 114.286132812 0 l 1
171.428710938 342.857421875 m 2
 228.571289062 342.857421875 l 1
 228.571289062 400 l 2
 228.571289062 431.428710938 202.857421875 457.142578125 171.428710938 457.142578125 c 2
 114.286132812 457.142578125 l 1
 114.286132812 400 l 2
 114.286132812 368.571289062 140 342.857421875 171.428710938 342.857421875 c 2
EndSplineSet
EndChar

StartChar: c
Encoding: 99 99 37
Width: 914
VWidth: 285
GlyphClass: 1
Flags: HW
LayerCount: 2
Fore
SplineSet
228.571289062 0 m 2
 342.857421875 0 l 1
 279.713867188 0 228.571289062 51.142578125 228.571289062 114.286132812 c 0
 228.571289062 177.428710938 177.428710938 228.571289062 114.286132812 228.571289062 c 1
 114.286132812 165.428710938 63.142578125 114.286132812 0 114.286132812 c 1
 114.286132812 114.286132812 l 1
 114.286132812 51.142578125 165.428710938 0 228.571289062 0 c 2
457.142578125 -114.286132812 m 2
 571.428710938 -114.286132812 l 1
 508.286132812 -114.286132812 457.142578125 -63.142578125 457.142578125 0 c 2
 457.142578125 114.286132812 l 2
 457.142578125 177.428710938 508.286132812 228.571289062 571.428710938 228.571289062 c 1
 457.142578125 228.571289062 l 2
 394 228.571289062 342.857421875 177.428710938 342.857421875 114.286132812 c 2
 342.857421875 0 l 2
 342.857421875 -63.142578125 394 -114.286132812 457.142578125 -114.286132812 c 2
571.428710938 0 m 1
 634.571289062 0 685.713867188 51.142578125 685.713867188 114.286132812 c 0
 685.713867188 177.428710938 634.571289062 228.571289062 571.428710938 228.571289062 c 1
 571.428710938 114.286132812 l 1
 457.142578125 114.286132812 l 1
 520.286132812 114.286132812 571.428710938 63.142578125 571.428710938 0 c 1
571.428710938 -114.286132812 m 1
 685.713867188 -114.286132812 l 2
 748.857421875 -114.286132812 800 -63.142578125 800 0 c 1
 863.142578125 0 914.286132812 51.142578125 914.286132812 114.286132812 c 0
 914.286132812 177.428710938 863.142578125 228.571289062 800 228.571289062 c 2
 685.713867188 228.571289062 l 1
 748.857421875 228.571289062 800 177.428710938 800 114.286132812 c 0
 800 51.142578125 748.857421875 0 685.713867188 0 c 1
 685.713867188 -63.142578125 634.571289062 -114.286132812 571.428710938 -114.286132812 c 1
285.713867188 228.571289062 m 2
 342.857421875 228.571289062 l 1
 342.857421875 285.713867188 l 2
 342.857421875 317.142578125 317.142578125 342.857421875 285.713867188 342.857421875 c 2
 228.571289062 342.857421875 l 1
 228.571289062 285.713867188 l 2
 228.571289062 254.286132812 254.286132812 228.571289062 285.713867188 228.571289062 c 2
400 342.857421875 m 2
 457.142578125 342.857421875 l 1
 457.142578125 400 l 2
 457.142578125 431.428710938 431.428710938 457.142578125 400 457.142578125 c 2
 342.857421875 457.142578125 l 1
 342.857421875 400 l 2
 342.857421875 368.571289062 368.571289062 342.857421875 400 342.857421875 c 2
EndSplineSet
EndChar

StartChar: d
Encoding: 100 100 38
Width: 571
VWidth: 285
GlyphClass: 1
Flags: HW
LayerCount: 2
Fore
SplineSet
342.857421875 0 m 1
 457.142578125 0 l 2
 520.286132812 0 571.428710938 51.142578125 571.428710938 114.286132812 c 1
 457.142578125 114.286132812 l 1
 457.142578125 51.142578125 406 0 342.857421875 0 c 1
228.571289062 0 m 2
 342.857421875 0 l 1
 279.713867188 0 228.571289062 51.142578125 228.571289062 114.286132812 c 0
 228.571289062 177.428710938 177.428710938 228.571289062 114.286132812 228.571289062 c 1
 114.286132812 165.428710938 63.142578125 114.286132812 0 114.286132812 c 1
 114.286132812 114.286132812 l 1
 114.286132812 51.142578125 165.428710938 0 228.571289062 0 c 2
285.713867188 228.571289062 m 2
 342.857421875 228.571289062 l 1
 342.857421875 285.713867188 l 2
 342.857421875 317.142578125 317.142578125 342.857421875 285.713867188 342.857421875 c 2
 228.571289062 342.857421875 l 1
 228.571289062 285.713867188 l 2
 228.571289062 254.286132812 254.286132812 228.571289062 285.713867188 228.571289062 c 2
EndSplineSet
EndChar

StartChar: e
Encoding: 101 101 39
Width: 342
VWidth: 285
GlyphClass: 1
Flags: HW
LayerCount: 2
Fore
SplineSet
228.571289062 0 m 1
 228.571289062 63.142578125 279.713867188 114.286132812 342.857421875 114.286132812 c 1
 228.571289062 114.286132812 l 1
 228.571289062 228.571289062 l 2
 228.571289062 291.713867188 177.428710938 342.857421875 114.286132812 342.857421875 c 1
 114.286132812 228.571289062 l 2
 114.286132812 165.428710938 63.142578125 114.286132812 0 114.286132812 c 1
 114.286132812 114.286132812 l 1
 114.286132812 51.142578125 165.428710938 0 228.571289062 0 c 1
EndSplineSet
EndChar

StartChar: f
Encoding: 102 102 40
Width: 685
VWidth: 285
GlyphClass: 1
Flags: HW
LayerCount: 2
Fore
SplineSet
228.571289062 0 m 1
 457.142578125 0 l 1
 394 0 342.857421875 51.142578125 342.857421875 114.286132812 c 1
 279.713867188 114.286132812 228.571289062 63.142578125 228.571289062 0 c 1
457.142578125 0 m 1
 571.428710938 0 l 2
 634.571289062 0 685.713867188 51.142578125 685.713867188 114.286132812 c 1
 571.428710938 114.286132812 l 1
 571.428710938 51.142578125 520.286132812 0 457.142578125 0 c 1
114.286132812 -228.571289062 m 1
 177.428710938 -228.571289062 228.571289062 -177.428710938 228.571289062 -114.286132812 c 2
 228.571289062 114.286132812 l 2
 228.571289062 177.428710938 279.713867188 228.571289062 342.857421875 228.571289062 c 1
 342.857421875 114.286132812 l 1
 406 114.286132812 457.142578125 165.428710938 457.142578125 228.571289062 c 0
 457.142578125 291.713867188 406 342.857421875 342.857421875 342.857421875 c 1
 342.857421875 279.713867188 291.713867188 228.571289062 228.571289062 228.571289062 c 2
 114.286132812 228.571289062 l 1
 114.286132812 165.428710938 63.142578125 114.286132812 0 114.286132812 c 1
 114.286132812 114.286132812 l 1
 114.286132812 -228.571289062 l 1
171.428710938 342.857421875 m 2
 228.571289062 342.857421875 l 1
 228.571289062 400 l 2
 228.571289062 431.428710938 202.857421875 457.142578125 171.428710938 457.142578125 c 2
 114.286132812 457.142578125 l 1
 114.286132812 400 l 2
 114.286132812 368.571289062 140 342.857421875 171.428710938 342.857421875 c 2
285.713867188 457.142578125 m 2
 342.857421875 457.142578125 l 1
 342.857421875 514.286132812 l 2
 342.857421875 545.713867188 317.142578125 571.428710938 285.713867188 571.428710938 c 2
 228.571289062 571.428710938 l 1
 228.571289062 514.286132812 l 2
 228.571289062 482.857421875 254.286132812 457.142578125 285.713867188 457.142578125 c 2
EndSplineSet
EndChar

StartChar: g
Encoding: 103 103 41
Width: 685
VWidth: 285
GlyphClass: 1
Flags: HW
LayerCount: 2
Fore
SplineSet
228.571289062 0 m 2
 342.857421875 0 l 1
 279.713867188 0 228.571289062 51.142578125 228.571289062 114.286132812 c 0
 228.571289062 177.428710938 177.428710938 228.571289062 114.286132812 228.571289062 c 1
 114.286132812 165.428710938 63.142578125 114.286132812 0 114.286132812 c 1
 114.286132812 114.286132812 l 1
 114.286132812 51.142578125 165.428710938 0 228.571289062 0 c 2
342.857421875 0 m 1
 406 0 457.142578125 51.142578125 457.142578125 114.286132812 c 0
 457.142578125 177.428710938 508.286132812 228.571289062 571.428710938 228.571289062 c 1
 457.142578125 228.571289062 l 2
 394 228.571289062 342.857421875 177.428710938 342.857421875 114.286132812 c 2
 342.857421875 0 l 1
571.428710938 0 m 1
 634.571289062 0 685.713867188 51.142578125 685.713867188 114.286132812 c 0
 685.713867188 177.428710938 634.571289062 228.571289062 571.428710938 228.571289062 c 1
 571.428710938 114.286132812 l 1
 457.142578125 114.286132812 l 1
 520.286132812 114.286132812 571.428710938 63.142578125 571.428710938 0 c 1
285.713867188 228.571289062 m 2
 342.857421875 228.571289062 l 1
 342.857421875 285.713867188 l 2
 342.857421875 317.142578125 317.142578125 342.857421875 285.713867188 342.857421875 c 2
 228.571289062 342.857421875 l 1
 228.571289062 285.713867188 l 2
 228.571289062 254.286132812 254.286132812 228.571289062 285.713867188 228.571289062 c 2
EndSplineSet
EndChar

StartChar: h
Encoding: 104 104 42
Width: 0
VWidth: 285
GlyphClass: 1
Flags: HW
LayerCount: 2
Fore
SplineSet
-171.428710938 -228.571289062 m 2
 -114.286132812 -228.571289062 l 1
 -114.286132812 -171.428710938 l 2
 -114.286132812 -140 -140 -114.286132812 -171.428710938 -114.286132812 c 2
 -228.571289062 -114.286132812 l 1
 -228.571289062 -171.428710938 l 2
 -228.571289062 -202.857421875 -202.857421875 -228.571289062 -171.428710938 -228.571289062 c 2
EndSplineSet
EndChar

StartChar: i
Encoding: 105 105 43
Width: 342
VWidth: 285
GlyphClass: 1
Flags: HW
LayerCount: 2
Fore
SplineSet
171.428710938 -228.571289062 m 2
 228.571289062 -228.571289062 l 1
 228.571289062 -171.428710938 l 2
 228.571289062 -140 202.857421875 -114.286132812 171.428710938 -114.286132812 c 2
 114.286132812 -114.286132812 l 1
 114.286132812 -171.428710938 l 2
 114.286132812 -202.857421875 140 -228.571289062 171.428710938 -228.571289062 c 2
228.571289062 0 m 1
 228.571289062 63.142578125 279.713867188 114.286132812 342.857421875 114.286132812 c 1
 228.571289062 114.286132812 l 1
 228.571289062 228.571289062 l 2
 228.571289062 291.713867188 177.428710938 342.857421875 114.286132812 342.857421875 c 1
 114.286132812 228.571289062 l 2
 114.286132812 165.428710938 63.142578125 114.286132812 0 114.286132812 c 1
 114.286132812 114.286132812 l 1
 114.286132812 51.142578125 165.428710938 0 228.571289062 0 c 1
EndSplineSet
EndChar

StartChar: j
Encoding: 106 106 44
Width: 914
VWidth: 285
GlyphClass: 1
Flags: HW
LayerCount: 2
Fore
SplineSet
228.571289062 0 m 2
 342.857421875 0 l 1
 279.713867188 0 228.571289062 51.142578125 228.571289062 114.286132812 c 0
 228.571289062 177.428710938 177.428710938 228.571289062 114.286132812 228.571289062 c 1
 114.286132812 165.428710938 63.142578125 114.286132812 0 114.286132812 c 1
 114.286132812 114.286132812 l 1
 114.286132812 51.142578125 165.428710938 0 228.571289062 0 c 2
457.142578125 -114.286132812 m 2
 571.428710938 -114.286132812 l 1
 508.286132812 -114.286132812 457.142578125 -63.142578125 457.142578125 0 c 2
 457.142578125 114.286132812 l 2
 457.142578125 177.428710938 508.286132812 228.571289062 571.428710938 228.571289062 c 1
 457.142578125 228.571289062 l 2
 394 228.571289062 342.857421875 177.428710938 342.857421875 114.286132812 c 2
 342.857421875 0 l 2
 342.857421875 -63.142578125 394 -114.286132812 457.142578125 -114.286132812 c 2
571.428710938 0 m 1
 634.571289062 0 685.713867188 51.142578125 685.713867188 114.286132812 c 0
 685.713867188 177.428710938 634.571289062 228.571289062 571.428710938 228.571289062 c 1
 571.428710938 114.286132812 l 1
 457.142578125 114.286132812 l 1
 520.286132812 114.286132812 571.428710938 63.142578125 571.428710938 0 c 1
571.428710938 -114.286132812 m 1
 685.713867188 -114.286132812 l 2
 748.857421875 -114.286132812 800 -63.142578125 800 0 c 1
 863.142578125 0 914.286132812 51.142578125 914.286132812 114.286132812 c 0
 914.286132812 177.428710938 863.142578125 228.571289062 800 228.571289062 c 2
 685.713867188 228.571289062 l 1
 748.857421875 228.571289062 800 177.428710938 800 114.286132812 c 0
 800 51.142578125 748.857421875 0 685.713867188 0 c 1
 685.713867188 -63.142578125 634.571289062 -114.286132812 571.428710938 -114.286132812 c 1
285.713867188 228.571289062 m 2
 342.857421875 228.571289062 l 1
 342.857421875 285.713867188 l 2
 342.857421875 317.142578125 317.142578125 342.857421875 285.713867188 342.857421875 c 2
 228.571289062 342.857421875 l 1
 228.571289062 285.713867188 l 2
 228.571289062 254.286132812 254.286132812 228.571289062 285.713867188 228.571289062 c 2
EndSplineSet
EndChar

StartChar: k
Encoding: 107 107 45
Width: 685
VWidth: 285
GlyphClass: 1
Flags: HW
LayerCount: 2
Fore
SplineSet
228.571289062 0 m 2
 342.857421875 0 l 1
 279.713867188 0 228.571289062 51.142578125 228.571289062 114.286132812 c 0
 228.571289062 177.428710938 177.428710938 228.571289062 114.286132812 228.571289062 c 1
 114.286132812 165.428710938 63.142578125 114.286132812 0 114.286132812 c 1
 114.286132812 114.286132812 l 1
 114.286132812 51.142578125 165.428710938 0 228.571289062 0 c 2
342.857421875 0 m 1
 406 0 457.142578125 51.142578125 457.142578125 114.286132812 c 0
 457.142578125 177.428710938 508.286132812 228.571289062 571.428710938 228.571289062 c 1
 457.142578125 228.571289062 l 2
 394 228.571289062 342.857421875 177.428710938 342.857421875 114.286132812 c 2
 342.857421875 0 l 1
571.428710938 0 m 1
 634.571289062 0 685.713867188 51.142578125 685.713867188 114.286132812 c 0
 685.713867188 177.428710938 634.571289062 228.571289062 571.428710938 228.571289062 c 1
 571.428710938 114.286132812 l 1
 457.142578125 114.286132812 l 1
 520.286132812 114.286132812 571.428710938 63.142578125 571.428710938 0 c 1
285.713867188 228.571289062 m 2
 342.857421875 228.571289062 l 1
 342.857421875 285.713867188 l 2
 342.857421875 317.142578125 317.142578125 342.857421875 285.713867188 342.857421875 c 2
 228.571289062 342.857421875 l 1
 228.571289062 285.713867188 l 2
 228.571289062 254.286132812 254.286132812 228.571289062 285.713867188 228.571289062 c 2
400 342.857421875 m 2
 457.142578125 342.857421875 l 1
 457.142578125 400 l 2
 457.142578125 431.428710938 431.428710938 457.142578125 400 457.142578125 c 2
 342.857421875 457.142578125 l 1
 342.857421875 400 l 2
 342.857421875 368.571289062 368.571289062 342.857421875 400 342.857421875 c 2
EndSplineSet
EndChar

StartChar: l
Encoding: 108 108 46
Width: 799
VWidth: 285
GlyphClass: 1
Flags: HW
LayerCount: 2
Fore
SplineSet
228.571289062 -228.571289062 m 1
 228.571289062 -114.286132812 l 2
 228.571289062 -51.142578125 279.713867188 0 342.857421875 0 c 1
 228.571289062 0 l 2
 165.428710938 0 114.286132812 -51.142578125 114.286132812 -114.286132812 c 0
 114.286132812 -177.428710938 165.428710938 -228.571289062 228.571289062 -228.571289062 c 1
114.286132812 0 m 1
 177.428710938 0 228.571289062 51.142578125 228.571289062 114.286132812 c 0
 228.571289062 177.428710938 177.428710938 228.571289062 114.286132812 228.571289062 c 1
 114.286132812 165.428710938 63.142578125 114.286132812 0 114.286132812 c 1
 114.286132812 114.286132812 l 1
 114.286132812 0 l 1
228.571289062 -228.571289062 m 1
 342.857421875 -228.571289062 l 2
 406 -228.571289062 457.142578125 -177.428710938 457.142578125 -114.286132812 c 2
 457.142578125 0 l 1
 571.428710938 0 l 1
 508.286132812 0 457.142578125 51.142578125 457.142578125 114.286132812 c 0
 457.142578125 177.428710938 406 228.571289062 342.857421875 228.571289062 c 1
 342.857421875 165.428710938 291.713867188 114.286132812 228.571289062 114.286132812 c 1
 342.857421875 114.286132812 l 1
 342.857421875 -114.286132812 l 2
 342.857421875 -177.428710938 291.713867188 -228.571289062 228.571289062 -228.571289062 c 1
571.428710938 0 m 1
 685.713867188 0 l 2
 748.857421875 0 800 51.142578125 800 114.286132812 c 0
 800 177.428710938 748.857421875 228.571289062 685.713867188 228.571289062 c 2
 571.428710938 228.571289062 l 1
 634.571289062 228.571289062 685.713867188 177.428710938 685.713867188 114.286132812 c 0
 685.713867188 51.142578125 634.571289062 0 571.428710938 0 c 1
EndSplineSet
EndChar

StartChar: m
Encoding: 109 109 47
Width: 685
VWidth: 285
GlyphClass: 1
Flags: HW
LayerCount: 2
Fore
SplineSet
228.571289062 0 m 1
 457.142578125 0 l 1
 394 0 342.857421875 51.142578125 342.857421875 114.286132812 c 1
 279.713867188 114.286132812 228.571289062 63.142578125 228.571289062 0 c 1
457.142578125 0 m 1
 571.428710938 0 l 2
 634.571289062 0 685.713867188 51.142578125 685.713867188 114.286132812 c 1
 571.428710938 114.286132812 l 1
 571.428710938 51.142578125 520.286132812 0 457.142578125 0 c 1
114.286132812 0 m 1
 177.428710938 0 228.571289062 51.142578125 228.571289062 114.286132812 c 0
 228.571289062 177.428710938 279.713867188 228.571289062 342.857421875 228.571289062 c 1
 342.857421875 114.286132812 l 1
 406 114.286132812 457.142578125 165.428710938 457.142578125 228.571289062 c 0
 457.142578125 291.713867188 406 342.857421875 342.857421875 342.857421875 c 5
 342.857421875 279.713867188 291.713867188 228.571289062 228.571289062 228.571289062 c 2
 114.286132812 228.571289062 l 1
 114.286132812 165.428710938 63.142578125 114.286132812 0 114.286132812 c 1
 114.286132812 114.286132812 l 1
 114.286132812 0 l 1
EndSplineSet
EndChar

StartChar: n
Encoding: 110 110 48
Width: 571
VWidth: 285
GlyphClass: 1
Flags: HW
LayerCount: 2
Fore
SplineSet
342.857421875 0 m 1
 457.142578125 0 l 2
 520.286132812 0 571.428710938 51.142578125 571.428710938 114.286132812 c 1
 457.142578125 114.286132812 l 1
 457.142578125 51.142578125 406 0 342.857421875 0 c 1
228.571289062 0 m 2
 342.857421875 0 l 1
 279.713867188 0 228.571289062 51.142578125 228.571289062 114.286132812 c 0
 228.571289062 177.428710938 177.428710938 228.571289062 114.286132812 228.571289062 c 1
 114.286132812 165.428710938 63.142578125 114.286132812 0 114.286132812 c 1
 114.286132812 114.286132812 l 1
 114.286132812 51.142578125 165.428710938 0 228.571289062 0 c 2
EndSplineSet
EndChar

StartChar: o
Encoding: 111 111 49
Width: 457
VWidth: 285
GlyphClass: 1
Flags: HW
LayerCount: 2
Fore
SplineSet
-114.286132812 -228.571289062 m 1
 -114.286132812 -114.286132812 l 2
 -114.286132812 -51.142578125 -63.142578125 0 0 0 c 1
 -114.286132812 0 l 2
 -177.428710938 0 -228.571289062 -51.142578125 -228.571289062 -114.286132812 c 0
 -228.571289062 -177.428710938 -177.428710938 -228.571289062 -114.286132812 -228.571289062 c 1
-114.286132812 -228.571289062 m 1
 0 -228.571289062 l 2
 63.142578125 -228.571289062 114.286132812 -177.428710938 114.286132812 -114.286132812 c 2
 114.286132812 114.286132812 l 2
 114.286132812 177.428710938 63.142578125 228.571289062 0 228.571289062 c 1
 0 165.428710938 -51.142578125 114.286132812 -114.286132812 114.286132812 c 1
 0 114.286132812 l 1
 0 -114.286132812 l 2
 0 -177.428710938 -51.142578125 -228.571289062 -114.286132812 -228.571289062 c 1
114.286132812 0 m 1
 228.571289062 0 l 2
 291.713867188 0 342.857421875 51.142578125 342.857421875 114.286132812 c 0
 342.857421875 177.428710938 291.713867188 228.571289062 228.571289062 228.571289062 c 2
 114.286132812 228.571289062 l 1
 177.428710938 228.571289062 228.571289062 177.428710938 228.571289062 114.286132812 c 0
 228.571289062 51.142578125 177.428710938 0 114.286132812 0 c 1
EndSplineSet
EndChar

StartChar: p
Encoding: 112 112 50
Width: 685
VWidth: 285
GlyphClass: 1
Flags: HW
LayerCount: 2
Fore
SplineSet
228.571289062 0 m 1
 457.142578125 0 l 1
 394 0 342.857421875 51.142578125 342.857421875 114.286132812 c 1
 279.713867188 114.286132812 228.571289062 63.142578125 228.571289062 0 c 1
457.142578125 0 m 1
 571.428710938 0 l 2
 634.571289062 0 685.713867188 51.142578125 685.713867188 114.286132812 c 1
 571.428710938 114.286132812 l 1
 571.428710938 51.142578125 520.286132812 0 457.142578125 0 c 1
114.286132812 0 m 1
 177.428710938 0 228.571289062 51.142578125 228.571289062 114.286132812 c 0
 228.571289062 177.428710938 279.713867188 228.571289062 342.857421875 228.571289062 c 1
 342.857421875 114.286132812 l 1
 406 114.286132812 457.142578125 165.428710938 457.142578125 228.571289062 c 0
 457.142578125 291.713867188 406 342.857421875 342.857421875 342.857421875 c 1
 342.857421875 279.713867188 291.713867188 228.571289062 228.571289062 228.571289062 c 2
 114.286132812 228.571289062 l 1
 114.286132812 165.428710938 63.142578125 114.286132812 0 114.286132812 c 1
 114.286132812 114.286132812 l 1
 114.286132812 0 l 1
171.428710938 342.857421875 m 2
 228.571289062 342.857421875 l 1
 228.571289062 400 l 2
 228.571289062 431.428710938 202.857421875 457.142578125 171.428710938 457.142578125 c 2
 114.286132812 457.142578125 l 1
 114.286132812 400 l 2
 114.286132812 368.571289062 140 342.857421875 171.428710938 342.857421875 c 2
285.713867188 457.142578125 m 2
 342.857421875 457.142578125 l 1
 342.857421875 514.286132812 l 2
 342.857421875 545.713867188 317.142578125 571.428710938 285.713867188 571.428710938 c 2
 228.571289062 571.428710938 l 1
 228.571289062 514.286132812 l 2
 228.571289062 482.857421875 254.286132812 457.142578125 285.713867188 457.142578125 c 2
EndSplineSet
EndChar

StartChar: q
Encoding: 113 113 51
Width: 685
VWidth: 285
GlyphClass: 1
Flags: HW
LayerCount: 2
Fore
SplineSet
228.571289062 0 m 2
 342.857421875 0 l 1
 279.713867188 0 228.571289062 51.142578125 228.571289062 114.286132812 c 0
 228.571289062 177.428710938 177.428710938 228.571289062 114.286132812 228.571289062 c 1
 114.286132812 165.428710938 63.142578125 114.286132812 0 114.286132812 c 1
 114.286132812 114.286132812 l 1
 114.286132812 51.142578125 165.428710938 0 228.571289062 0 c 2
342.857421875 0 m 1
 406 0 457.142578125 51.142578125 457.142578125 114.286132812 c 0
 457.142578125 177.428710938 508.286132812 228.571289062 571.428710938 228.571289062 c 1
 457.142578125 228.571289062 l 2
 394 228.571289062 342.857421875 177.428710938 342.857421875 114.286132812 c 2
 342.857421875 0 l 1
571.428710938 0 m 1
 634.571289062 0 685.713867188 51.142578125 685.713867188 114.286132812 c 0
 685.713867188 177.428710938 634.571289062 228.571289062 571.428710938 228.571289062 c 1
 571.428710938 114.286132812 l 1
 457.142578125 114.286132812 l 1
 520.286132812 114.286132812 571.428710938 63.142578125 571.428710938 0 c 1
EndSplineSet
EndChar

StartChar: r
Encoding: 114 114 52
Width: 457
VWidth: 285
GlyphClass: 1
Flags: HW
LayerCount: 2
Fore
SplineSet
228.571289062 0 m 1
 342.857421875 0 l 2
 406 0 457.142578125 51.142578125 457.142578125 114.286132812 c 0
 457.142578125 177.428710938 406 228.571289062 342.857421875 228.571289062 c 2
 228.571289062 228.571289062 l 1
 291.713867188 228.571289062 342.857421875 177.428710938 342.857421875 114.286132812 c 0
 342.857421875 51.142578125 291.713867188 0 228.571289062 0 c 1
228.571289062 -228.571289062 m 1
 228.571289062 228.571289062 l 2
 228.571289062 291.713867188 177.428710938 342.857421875 114.286132812 342.857421875 c 1
 114.286132812 228.571289062 l 2
 114.286132812 165.428710938 63.142578125 114.286132812 0 114.286132812 c 1
 114.286132812 114.286132812 l 1
 114.286132812 -114.286132812 l 2
 114.286132812 -177.428710938 165.428710938 -228.571289062 228.571289062 -228.571289062 c 1
EndSplineSet
EndChar

StartChar: s
Encoding: 115 115 53
Width: 799
VWidth: 285
GlyphClass: 1
Flags: HW
LayerCount: 2
Fore
SplineSet
342.857421875 0 m 1
 457.142578125 0 l 2
 520.286132812 0 571.428710938 51.142578125 571.428710938 114.286132812 c 1
 457.142578125 114.286132812 l 1
 457.142578125 51.142578125 406 0 342.857421875 0 c 1
228.571289062 0 m 2
 342.857421875 0 l 1
 279.713867188 0 228.571289062 51.142578125 228.571289062 114.286132812 c 0
 228.571289062 177.428710938 177.428710938 228.571289062 114.286132812 228.571289062 c 1
 114.286132812 165.428710938 63.142578125 114.286132812 0 114.286132812 c 1
 114.286132812 114.286132812 l 1
 114.286132812 51.142578125 165.428710938 0 228.571289062 0 c 2
571.428710938 0 m 1
 685.713867188 0 l 2
 748.857421875 0 800 51.142578125 800 114.286132812 c 0
 800 177.428710938 748.857421875 228.571289062 685.713867188 228.571289062 c 1
 685.713867188 165.428710938 634.571289062 114.286132812 571.428710938 114.286132812 c 1
 685.713867188 114.286132812 l 1
 685.713867188 51.142578125 634.571289062 0 571.428710938 0 c 1
285.713867188 228.571289062 m 2
 342.857421875 228.571289062 l 1
 342.857421875 285.713867188 l 2
 342.857421875 317.142578125 317.142578125 342.857421875 285.713867188 342.857421875 c 2
 228.571289062 342.857421875 l 1
 228.571289062 285.713867188 l 2
 228.571289062 254.286132812 254.286132812 228.571289062 285.713867188 228.571289062 c 2
400 342.857421875 m 2
 457.142578125 342.857421875 l 1
 457.142578125 400 l 2
 457.142578125 431.428710938 431.428710938 457.142578125 400 457.142578125 c 2
 342.857421875 457.142578125 l 1
 342.857421875 400 l 2
 342.857421875 368.571289062 368.571289062 342.857421875 400 342.857421875 c 2
EndSplineSet
EndChar

StartChar: t
Encoding: 116 116 54
Width: 571
VWidth: 285
GlyphClass: 1
Flags: HW
LayerCount: 2
Fore
SplineSet
342.857421875 0 m 1
 457.142578125 0 l 2
 520.286132812 0 571.428710938 51.142578125 571.428710938 114.286132812 c 1
 457.142578125 114.286132812 l 1
 457.142578125 51.142578125 406 0 342.857421875 0 c 1
228.571289062 0 m 2
 342.857421875 0 l 1
 279.713867188 0 228.571289062 51.142578125 228.571289062 114.286132812 c 0
 228.571289062 177.428710938 177.428710938 228.571289062 114.286132812 228.571289062 c 1
 114.286132812 165.428710938 63.142578125 114.286132812 0 114.286132812 c 1
 114.286132812 114.286132812 l 1
 114.286132812 51.142578125 165.428710938 0 228.571289062 0 c 2
285.713867188 228.571289062 m 2
 342.857421875 228.571289062 l 1
 342.857421875 285.713867188 l 2
 342.857421875 317.142578125 317.142578125 342.857421875 285.713867188 342.857421875 c 2
 228.571289062 342.857421875 l 1
 228.571289062 285.713867188 l 2
 228.571289062 254.286132812 254.286132812 228.571289062 285.713867188 228.571289062 c 2
400 342.857421875 m 2
 457.142578125 342.857421875 l 1
 457.142578125 400 l 2
 457.142578125 431.428710938 431.428710938 457.142578125 400 457.142578125 c 2
 342.857421875 457.142578125 l 1
 342.857421875 400 l 2
 342.857421875 368.571289062 368.571289062 342.857421875 400 342.857421875 c 2
EndSplineSet
EndChar

StartChar: u
Encoding: 117 117 55
Width: 457
VWidth: 285
GlyphClass: 1
Flags: HW
LayerCount: 2
Fore
SplineSet
285.713867188 -228.571289062 m 2
 342.857421875 -228.571289062 l 1
 342.857421875 -171.428710938 l 2
 342.857421875 -140 317.142578125 -114.286132812 285.713867188 -114.286132812 c 2
 228.571289062 -114.286132812 l 1
 228.571289062 -171.428710938 l 2
 228.571289062 -202.857421875 254.286132812 -228.571289062 285.713867188 -228.571289062 c 2
-114.286132812 -228.571289062 m 1
 -114.286132812 -114.286132812 l 2
 -114.286132812 -51.142578125 -63.142578125 0 0 0 c 1
 -114.286132812 0 l 2
 -177.428710938 0 -228.571289062 -51.142578125 -228.571289062 -114.286132812 c 0
 -228.571289062 -177.428710938 -177.428710938 -228.571289062 -114.286132812 -228.571289062 c 1
-114.286132812 -228.571289062 m 1
 0 -228.571289062 l 2
 63.142578125 -228.571289062 114.286132812 -177.428710938 114.286132812 -114.286132812 c 2
 114.286132812 114.286132812 l 2
 114.286132812 177.428710938 63.142578125 228.571289062 0 228.571289062 c 1
 0 165.428710938 -51.142578125 114.286132812 -114.286132812 114.286132812 c 1
 0 114.286132812 l 1
 0 -114.286132812 l 2
 0 -177.428710938 -51.142578125 -228.571289062 -114.286132812 -228.571289062 c 1
114.286132812 0 m 1
 228.571289062 0 l 2
 291.713867188 0 342.857421875 51.142578125 342.857421875 114.286132812 c 0
 342.857421875 177.428710938 291.713867188 228.571289062 228.571289062 228.571289062 c 2
 114.286132812 228.571289062 l 1
 177.428710938 228.571289062 228.571289062 177.428710938 228.571289062 114.286132812 c 0
 228.571289062 51.142578125 177.428710938 0 114.286132812 0 c 1
EndSplineSet
EndChar

StartChar: v
Encoding: 118 118 56
Width: 685
VWidth: 285
GlyphClass: 1
Flags: HW
LayerCount: 2
Fore
SplineSet
228.571289062 0 m 1
 457.142578125 0 l 1
 394 0 342.857421875 51.142578125 342.857421875 114.286132812 c 1
 279.713867188 114.286132812 228.571289062 63.142578125 228.571289062 0 c 1
457.142578125 0 m 1
 571.428710938 0 l 2
 634.571289062 0 685.713867188 51.142578125 685.713867188 114.286132812 c 1
 571.428710938 114.286132812 l 1
 571.428710938 51.142578125 520.286132812 0 457.142578125 0 c 1
114.286132812 -228.571289062 m 1
 177.428710938 -228.571289062 228.571289062 -177.428710938 228.571289062 -114.286132812 c 2
 228.571289062 114.286132812 l 2
 228.571289062 177.428710938 279.713867188 228.571289062 342.857421875 228.571289062 c 1
 342.857421875 114.286132812 l 1
 406 114.286132812 457.142578125 165.428710938 457.142578125 228.571289062 c 0
 457.142578125 291.713867188 406 342.857421875 342.857421875 342.857421875 c 1
 342.857421875 279.713867188 291.713867188 228.571289062 228.571289062 228.571289062 c 2
 114.286132812 228.571289062 l 1
 114.286132812 165.428710938 63.142578125 114.286132812 0 114.286132812 c 1
 114.286132812 114.286132812 l 1
 114.286132812 -228.571289062 l 1
171.428710938 342.857421875 m 2
 228.571289062 342.857421875 l 1
 228.571289062 400 l 2
 228.571289062 431.428710938 202.857421875 457.142578125 171.428710938 457.142578125 c 2
 114.286132812 457.142578125 l 1
 114.286132812 400 l 2
 114.286132812 368.571289062 140 342.857421875 171.428710938 342.857421875 c 2
EndSplineSet
EndChar

StartChar: w
Encoding: 119 119 57
Width: 457
VWidth: 285
GlyphClass: 1
Flags: HW
LayerCount: 2
Fore
SplineSet
-114.286132812 -228.571289062 m 1
 -114.286132812 -114.286132812 l 2
 -114.286132812 -51.142578125 -63.142578125 0 0 0 c 1
 -114.286132812 0 l 2
 -177.428710938 0 -228.571289062 -51.142578125 -228.571289062 -114.286132812 c 0
 -228.571289062 -177.428710938 -177.428710938 -228.571289062 -114.286132812 -228.571289062 c 1
-114.286132812 -228.571289062 m 1
 0 -228.571289062 l 2
 63.142578125 -228.571289062 114.286132812 -177.428710938 114.286132812 -114.286132812 c 2
 114.286132812 114.286132812 l 2
 114.286132812 177.428710938 63.142578125 228.571289062 0 228.571289062 c 1
 0 165.428710938 -51.142578125 114.286132812 -114.286132812 114.286132812 c 1
 0 114.286132812 l 1
 0 -114.286132812 l 2
 0 -177.428710938 -51.142578125 -228.571289062 -114.286132812 -228.571289062 c 1
114.286132812 0 m 1
 228.571289062 0 l 2
 291.713867188 0 342.857421875 51.142578125 342.857421875 114.286132812 c 0
 342.857421875 177.428710938 291.713867188 228.571289062 228.571289062 228.571289062 c 2
 114.286132812 228.571289062 l 1
 177.428710938 228.571289062 228.571289062 177.428710938 228.571289062 114.286132812 c 0
 228.571289062 51.142578125 177.428710938 0 114.286132812 0 c 1
EndSplineSet
EndChar

StartChar: x
Encoding: 120 120 58
Width: 457
VWidth: 285
GlyphClass: 1
Flags: HW
LayerCount: 2
Fore
SplineSet
228.571289062 0 m 1
 228.571289062 114.286132812 l 2
 228.571289062 177.428710938 177.428710938 228.571289062 114.286132812 228.571289062 c 1
 114.286132812 165.428710938 63.142578125 114.286132812 0 114.286132812 c 1
 114.286132812 114.286132812 l 1
 114.286132812 51.142578125 165.428710938 0 228.571289062 0 c 1
228.571289062 0 m 1
 342.857421875 0 l 2
 406 0 457.142578125 51.142578125 457.142578125 114.286132812 c 0
 457.142578125 177.428710938 406 228.571289062 342.857421875 228.571289062 c 2
 228.571289062 228.571289062 l 1
 291.713867188 228.571289062 342.857421875 177.428710938 342.857421875 114.286132812 c 0
 342.857421875 51.142578125 291.713867188 0 228.571289062 0 c 1
EndSplineSet
EndChar

StartChar: y
Encoding: 121 121 59
Width: 342
VWidth: 285
GlyphClass: 1
Flags: HW
LayerCount: 2
Fore
SplineSet
228.571289062 0 m 1
 228.571289062 63.142578125 279.713867188 114.286132812 342.857421875 114.286132812 c 1
 228.571289062 114.286132812 l 1
 228.571289062 457.142578125 l 6
 228.571289062 520.286132812 177.428710938 571.428710938 114.286132812 571.428710938 c 5
 114.286132812 228.571289062 l 2
 114.286132812 165.428710938 63.142578125 114.286132812 0 114.286132812 c 1
 114.286132812 114.286132812 l 1
 114.286132812 51.142578125 165.428710938 0 228.571289062 0 c 1
EndSplineSet
EndChar

StartChar: z
Encoding: 122 122 60
Width: 799
VWidth: 285
GlyphClass: 1
Flags: HW
LayerCount: 2
Fore
SplineSet
342.857421875 0 m 1
 457.142578125 0 l 2
 520.286132812 0 571.428710938 51.142578125 571.428710938 114.286132812 c 1
 457.142578125 114.286132812 l 1
 457.142578125 51.142578125 406 0 342.857421875 0 c 1
228.571289062 0 m 2
 342.857421875 0 l 1
 279.713867188 0 228.571289062 51.142578125 228.571289062 114.286132812 c 0
 228.571289062 177.428710938 177.428710938 228.571289062 114.286132812 228.571289062 c 1
 114.286132812 165.428710938 63.142578125 114.286132812 0 114.286132812 c 1
 114.286132812 114.286132812 l 1
 114.286132812 51.142578125 165.428710938 0 228.571289062 0 c 2
571.428710938 0 m 1
 685.713867188 0 l 2
 748.857421875 0 800 51.142578125 800 114.286132812 c 0
 800 177.428710938 748.857421875 228.571289062 685.713867188 228.571289062 c 1
 685.713867188 165.428710938 634.571289062 114.286132812 571.428710938 114.286132812 c 1
 685.713867188 114.286132812 l 1
 685.713867188 51.142578125 634.571289062 0 571.428710938 0 c 1
285.713867188 228.571289062 m 2
 342.857421875 228.571289062 l 1
 342.857421875 285.713867188 l 2
 342.857421875 317.142578125 317.142578125 342.857421875 285.713867188 342.857421875 c 2
 228.571289062 342.857421875 l 1
 228.571289062 285.713867188 l 2
 228.571289062 254.286132812 254.286132812 228.571289062 285.713867188 228.571289062 c 2
EndSplineSet
EndChar
